#N canvas 711 553 450 300 12;
#X obj 40 30 inlet;
#X obj 180 124 f \$1;
#X obj 230 124 f \$2;
#X obj 180 70 loadbang;
#X obj 180 99 t b b;
#X obj 150 242 outlet;
#X obj 150 184 pack f f;
#X msg 150 210 pad \$2 \$1;
#X obj 180 153 expr $f1 + 8*(7-$f2);
#X obj 40 60 r \$1-progress;
#X obj 40 90 pack f f;
#X obj 40 120 expr if($f1 == 1 \, if($f2 > 0 \, 1 \, 2) \, if($f1 == 0 \, 5 \, 0));
#X connect 0 0 10 0;
#X connect 1 0 8 0;
#X connect 2 0 8 1;
#X connect 3 0 4 0;
#X connect 4 0 1 0;
#X connect 4 1 2 0;
#X connect 6 0 7 0;
#X connect 7 0 5 0;
#X connect 8 0 6 1;
#X connect 9 0 10 1;
#X connect 10 0 11 0;
#X connect 11 0 6 0;
