#N canvas 551 422 450 344 12;
#X obj 40 40 inlet;
#X obj 40 100 unpack f f f f f f f f f;
#X obj 40 129 hsl 32 15 0 1 0 0 \$1-p empty empty -2 -8 0 10 #fcfcfc #000000 #000000 0 1;
#X floatatom 60 155 0 0 0 0 - - - 0;
#X floatatom 90 155 0 0 0 0 - - - 0;
#X floatatom 120 155 0 0 0 0 - - - 0;
#X floatatom 150 155 0 0 0 0 - - - 0;
#X floatatom 180 155 0 0 0 0 - - - 0;
#X floatatom 210 155 0 0 0 0 - - - 0;
#X floatatom 240 155 0 0 0 0 - - - 0;
#X floatatom 270 155 0 0 0 0 - - - 0;
#X obj 60 220 pad \$1 0;
#X obj 90 250 pad \$1 1;
#X obj 120 220 pad \$1 2;
#X obj 150 250 pad \$1 3;
#X obj 180 220 pad \$1 4;
#X obj 210 250 pad \$1 5;
#X obj 240 220 pad \$1 6;
#X obj 270 250 pad \$1 7;
#X obj 60 290 outlet;
#X obj 40 70 t a a;
#X obj 200 70 unpack f;
#X obj 257 107 s \$1-progress;
#X connect 0 0 20 0;
#X connect 1 0 2 0;
#X connect 1 1 3 0;
#X connect 1 2 4 0;
#X connect 1 3 5 0;
#X connect 1 4 6 0;
#X connect 1 5 7 0;
#X connect 1 6 8 0;
#X connect 1 7 9 0;
#X connect 1 8 10 0;
#X connect 3 0 11 0;
#X connect 4 0 12 0;
#X connect 5 0 13 0;
#X connect 6 0 14 0;
#X connect 7 0 15 0;
#X connect 8 0 16 0;
#X connect 9 0 17 0;
#X connect 10 0 18 0;
#X connect 11 0 19 0;
#X connect 12 0 19 0;
#X connect 13 0 19 0;
#X connect 14 0 19 0;
#X connect 15 0 19 0;
#X connect 16 0 19 0;
#X connect 17 0 19 0;
#X connect 18 0 19 0;
#X connect 20 0 1 0;
#X connect 20 1 21 0;
#X connect 21 0 22 0;
